<svg width="720" height="480" xmlns="http://www.w3.org/2000/svg" xmlns:svg="http://www.w3.org/2000/svg">
 <!-- Created with SVG-edit - http://svg-edit.googlecode.com/ -->
 <g>
  <path stroke="#000000" id="svg_8" d="m78.52929,135.27807c20.31974,41.47249 24.28666,54.06711 17.56822,55.77751c-13.12401,3.34122 -10.48672,22.45013 7.88253,57.11402c23.03701,43.47234 68.15946,70.16831 110.54335,65.40122c16.45098,-1.85033 35.04954,-5.66894 41.33013,-8.48593c6.28056,-2.81702 2.42656,2.43077 -8.56446,11.66168c-54.9834,46.17824 -122.89033,42.96155 -177.06531,-8.38736c-21.60058,-20.47385 -51.31962,-80.29273 -51.31962,-103.29694c0,-6.51694 -4.89965,-12.83159 -10.88809,-14.03249c-9.79341,-1.96395 -8.4782,-7.13508 13.08154,-51.43391c13.18331,-27.08777 25.59322,-51.1935 27.57759,-53.56827c1.98441,-2.37478 15.41875,19.78791 29.85413,49.25046l-0.00001,0.00001zm174.66564,79.95386c-20.31975,-41.47248 -24.28666,-54.06715 -17.56826,-55.77751c13.12401,-3.34116 10.48673,-22.45012 -7.8825,-57.11402c-23.03702,-43.47235 -68.15952,-70.16833 -110.54338,-65.40125c-16.45098,1.8503 -35.0495,5.66898 -41.33009,8.48598c-6.28059,2.81696 -2.42659,-2.43081 8.56443,-11.66171c54.98341,-46.17827 122.89034,-42.96159 177.06532,8.38739c21.60059,20.47378 51.31961,80.29271 51.31961,103.29687c0,6.51698 4.89969,12.83159 10.88807,14.03249c9.79345,1.96398 8.47821,7.13508 -13.08149,51.43393c-13.1833,27.08773 -25.59324,51.19347 -27.57759,53.56827c-1.98442,2.37478 -15.41875,-19.78789 -29.85413,-49.25044l0,-0.00001z" stroke-linecap="null" stroke-linejoin="null" stroke-dasharray="null" stroke-width="0" fill="#00bf00"/>
 </g>
</svg>